<svg width="14" height="12" viewBox="0 0 14 12" fill="none" xmlns="http://www.w3.org/2000/svg">
<path d="M9.46447 1.05021C9.07393 0.659673 8.44075 0.659716 8.05026 1.05021C7.65976 1.44071 7.65972 2.07389 8.05026 2.46443L10.5858 5H1C0.447716 5 0 5.44772 0 6C0 6.55228 0.447716 7 1 7H10.5858L8.05026 9.53549C7.65976 9.92599 7.65972 10.5592 8.05026 10.9497C8.4408 11.3402 9.07397 11.3402 9.46447 10.9497L13.7021 6.71206C13.7192 6.69517 13.7358 6.67767 13.7516 6.65959C13.8215 6.58017 13.8766 6.49232 13.917 6.39959C13.9704 6.27721 14 6.14206 14 6C14 5.87195 13.9759 5.74952 13.9321 5.63699C13.8833 5.51161 13.8083 5.39408 13.7071 5.29285L9.46447 1.05021Z" fill="#3CAFD6"/>
</svg>
