<svg width="32" height="24" viewBox="0 0 32 24" fill="none" xmlns="http://www.w3.org/2000/svg">
<path d="M13.7249 0L8.80186 16.9412L7.16084 10.5882C9.29915 10.5882 11.0396 11.1765 12.3823 12.3529C13.7249 13.5294 14.3963 15.1529 14.3963 17.2235C14.3963 19.2471 13.7001 20.8941 12.3077 22.1647C10.965 23.3882 9.27428 24 7.23543 24C5.14685 24 3.40637 23.3882 2.01399 22.1647C0.671329 20.8941 0 19.2471 0 17.2235C0 16.6118 0.0497281 16.0235 0.149184 15.4588C0.24864 14.8471 0.447553 14.1412 0.745921 13.3412C1.04429 12.5412 1.46698 11.4824 2.01399 10.1647L6.34033 0H13.7249ZM31.3287 0L26.4056 16.9412L24.7646 10.5882C26.9029 10.5882 28.6434 11.1765 29.986 12.3529C31.3287 13.5294 32 15.1529 32 17.2235C32 19.2471 31.3038 20.8941 29.9114 22.1647C28.5688 23.3882 26.878 24 24.8392 24C22.7506 24 21.0101 23.3882 19.6177 22.1647C18.2751 20.8941 17.6037 19.2471 17.6037 17.2235C17.6037 16.6118 17.6535 16.0235 17.7529 15.4588C17.8524 14.8471 18.0513 14.1412 18.3496 13.3412C18.648 12.5412 19.0707 11.4824 19.6177 10.1647L23.9441 0H31.3287Z" fill="#373B61" fill-opacity="0.15"/>
</svg>
