<svg fill="none" height="565" viewBox="0 0 1400 565" width="1400" xmlns="http://www.w3.org/2000/svg" xmlns:xlink="http://www.w3.org/1999/xlink"><linearGradient id="a"><stop offset="0" stop-color="#3cafd6"/><stop offset=".266794" stop-color="#3cafd6" stop-opacity="0"/><stop offset=".671995" stop-color="#3cafd6" stop-opacity="0"/><stop offset="1" stop-color="#3cafd6"/></linearGradient><linearGradient id="b" gradientUnits="userSpaceOnUse" x1="-93.3382" x2="928.367" xlink:href="#a" y1="257.396" y2="1092.68"/><linearGradient id="c" gradientUnits="userSpaceOnUse" x1="-191.21" x2="971.756" xlink:href="#a" y1="553.814" y2="1177.59"/><linearGradient id="d" gradientUnits="userSpaceOnUse" x1="545.399" x2="651.809" y1="349.727" y2="77.3959"><stop offset="0" stop-color="#3cafd6" stop-opacity="0"/><stop offset="1" stop-color="#3cafd6" stop-opacity=".36"/></linearGradient><clipPath id="e"><path d="m0 0h1400v565h-1400z"/></clipPath><g clip-path="url(#e)"><path d="m0 0h1400v565h-1400z" fill="#f0fbff"/><g opacity=".25"><path d="m1936.39 118.717c1.2 1.662-.1 4.046-3.07 6.105-647.92 448.712-1491.02-262.082-2204.444 276.892-7.711 5.825-25.866 8.468-29.359 3.859l-156.584-206.635c-1.35-1.781.236-4.395 3.703-6.579 508.3417-320.175 833.374 273.788 2226.404-266.8932 8.94-3.4693 20.51-3.7269 23.03-.2498z" fill="url(#b)" fill-opacity=".5"/><path d="m1774.21 28.3408c1.5 1.4001.69 3.9879-1.83 6.579-549.81 564.6712-1513.608 28.8143-2110.388 694.6362-6.45 7.196-23.762 13.273-28.074 9.42l-193.315-172.759c-1.667-1.489-.612-4.359 2.372-7.167 437.48-411.746 870.418 108.833 2133.855-689.036 8.1-5.119 19.41-7.592 22.55-4.663z" fill="url(#c)" fill-opacity=".5"/><path d="m-492.748 192.716c-.084-1.348 1.235-2.964 3.339-4.317 842.984-542.027 1056.03 338.308 2044.569-315.918 10.03-6.64 34.15-6.794 30.86.132l-114.21 240.423c-.68 1.431-2.7 2.969-5.41 4.195-739.949 335.966-1165.47-144.0158-1909.394 383.181-8.626 6.112-30.094 7.105-30.468 1.115z" fill="url(#d)" fill-opacity=".9"/></g></g></svg>