<svg width="1400" height="687" viewBox="0 0 1400 687" fill="none" xmlns="http://www.w3.org/2000/svg">
<rect width="1400" height="646" fill="white"/>
<rect width="1400" height="646" fill="url(#paint0_linear_2383_14080)"/>
<g clip-path="url(#clip0_2383_14080)">
<path fill-rule="evenodd" clip-rule="evenodd" d="M-2.84585 19.5044C-2.45839 18.729 -1.96698 18.0387 -1.32437 17.4524C0.57512 15.6842 3.10777 14.8047 5.56482 13.9632C11.819 11.8261 18.1337 9.54329 24.5028 7.24075C56.7158 -4.40478 90.3215 -16.5538 124.533 -12.8826C134.437 -11.71 144.492 -8.76918 152.033 -2.23505C161.994 6.39832 166.095 19.8826 164.914 32.7334C161.814 66.3875 150.19 97.3182 135.212 127.057C120.422 156.418 104.877 185.42 89.0194 214.223C76.6093 236.76 63.8653 259.119 51.1223 281.476C45.0499 292.129 38.9778 302.783 32.942 313.455C32.4331 314.362 32.0458 315.338 31.6589 316.312C31.4854 316.749 31.3119 317.185 31.1276 317.616C31.316 317.764 31.5044 317.913 31.6933 318.063L31.6961 318.065C32.0367 318.335 32.3787 318.606 32.7247 318.873C32.8574 318.581 32.9718 318.271 33.0863 317.962C33.3307 317.302 33.5758 316.64 34.0004 316.131C45.7848 302.221 57.6164 288.34 69.4481 274.477C74.5932 268.449 79.7494 262.428 84.9062 256.407L84.9078 256.406C89.2789 251.302 93.6504 246.198 98.016 241.088C99.2159 239.683 100.415 238.278 101.614 236.874C146.995 183.729 191.959 131.071 245.212 85.4414C298.417 39.8443 356.932 0.441008 419.247 -31.5866C440.925 -42.7258 462.812 -37.2602 457.851 -10.4334C455.366 2.98921 449.056 15.3027 442.81 27.4924C440.291 32.4089 437.782 37.3053 435.539 42.2462C406.98 105.148 374.188 166.035 339.695 225.845C329.944 242.753 319.731 259.45 309.51 276.158C283.864 318.085 258.175 360.081 239.646 405.661C233.229 421.452 228.655 436.573 233.154 453.386C234.382 457.991 236.877 461.839 241.101 464.373C241.519 464.622 241.843 465.038 242.165 465.452C242.309 465.637 242.452 465.821 242.604 465.99H127.491C127.547 465.588 127.584 465.18 127.622 464.771L127.622 464.771C127.699 463.931 127.776 463.091 128.011 462.303C135.023 439.192 143.764 416.743 154.632 395.193C192.196 320.752 235.499 250.39 278.95 179.787L278.95 179.787L278.953 179.783C294.299 154.847 309.664 129.88 324.802 104.694C333.335 90.5004 328.572 78.6803 312.242 91.1623C214.868 165.581 130.657 257.749 58.9773 356.896C46.208 374.207 33.8952 391.861 21.5835 409.513L21.582 409.515C16.5367 416.749 11.4916 423.983 6.41533 431.192C4.26081 434.251 2.18322 437.357 0.104949 440.464L0.104257 440.465C-0.907465 441.978 -1.91935 443.49 -2.94035 444.998V316.207C-2.53333 315.578 -2.11557 314.954 -1.69774 314.331C-0.815615 313.015 0.066823 311.698 0.849175 310.325C1.53419 309.128 2.22085 307.931 2.90752 306.734L2.91434 306.722L2.91462 306.722C6.27053 300.873 9.62669 295.024 12.7942 289.077C24.6258 266.903 36.448 244.719 48.0812 222.441C57.9661 203.51 67.8037 184.55 77.613 165.581C79.358 162.208 81.0836 158.823 82.8095 155.437C85.6075 149.948 88.4059 144.459 91.2874 139.019C91.6392 138.356 91.9938 137.693 92.3488 137.029C96.4469 129.367 100.584 121.632 100.775 112.703C100.842 109.753 100.407 106.661 98.7247 104.231C95.4172 99.4647 88.6886 98.869 82.8957 98.9825C67.3312 99.2851 51.7195 101.318 36.637 105.176C29.8423 106.916 23.2745 109.365 16.8389 112.126C16.4894 112.276 15.7567 112.567 14.7706 112.959L14.7695 112.959C9.51482 115.047 -2.9309 119.992 -2.9309 121.592V66.4158V38.8231C-2.9309 37.2484 -3.16126 35.3257 -3.40813 33.2653C-3.97212 28.558 -4.62223 23.1321 -2.80805 19.4949L-2.84585 19.5044ZM259.585 466C259.762 465.792 259.927 465.55 260.092 465.308C260.446 464.79 260.799 464.27 261.276 464.09C275.284 458.894 286.715 449.693 298.107 440.523C298.843 439.931 299.579 439.339 300.315 438.748C328.382 416.223 353.595 390.626 378.534 364.773C383.785 359.329 388.871 353.72 393.956 348.11C396.741 345.038 399.527 341.965 402.339 338.92C402.769 338.458 403.32 338.105 403.873 337.751C404.134 337.584 404.396 337.416 404.645 337.237C404.756 337.3 404.867 337.364 404.978 337.427C405.198 337.553 405.421 337.679 405.647 337.804C405.468 338.357 405.319 338.928 405.17 339.499C404.847 340.733 404.525 341.967 403.898 343.015C402.556 345.245 401.228 347.486 399.901 349.727L399.9 349.727C395.637 356.922 391.372 364.119 386.624 370.976C373.819 389.453 360.966 407.93 347.32 425.783C340.633 434.524 333.307 442.769 325.981 451.013L325.981 451.014C322.695 454.712 319.409 458.409 316.182 462.151C315.224 463.266 314.274 464.381 313.319 465.502L312.903 465.99H259.594L259.585 466ZM498.804 284.577C498.806 284.577 498.808 284.576 498.81 284.576L498.801 284.595C498.802 284.589 498.803 284.583 498.804 284.577ZM495.101 285.068C496.336 284.904 497.57 284.739 498.804 284.577C498.86 284.262 498.925 283.956 498.98 283.649C498.815 283.519 498.654 283.381 498.492 283.243C498.117 282.923 497.74 282.602 497.317 282.363C495.277 281.226 493.239 280.086 491.2 278.946C483.018 274.37 474.835 269.793 466.566 265.38C464.052 264.038 463.58 262.562 464.109 259.962C466.169 249.872 468.097 239.764 469.987 229.646C470.245 228.254 470.344 226.838 470.451 225.304C470.505 224.534 470.56 223.735 470.639 222.894C469.816 223.654 469.084 224.328 468.406 224.953C467.464 225.82 466.626 226.592 465.791 227.367C463.681 229.331 461.566 231.291 459.452 233.252C453.738 238.551 448.023 243.85 442.374 249.22C440.748 250.761 439.425 250.752 437.62 249.712C427.641 243.953 417.624 238.26 407.597 232.568C406.815 232.119 405.986 231.749 404.983 231.3C404.506 231.087 403.989 230.857 403.42 230.592C403.56 231.067 403.665 231.454 403.754 231.782C403.916 232.38 404.024 232.778 404.195 233.145C404.648 234.106 405.101 235.067 405.554 236.029C410.014 245.497 414.473 254.963 418.994 264.397L419.035 264.483C421.15 268.901 421.268 269.146 417.718 272.435C412.742 277.048 407.721 281.613 402.7 286.179C399.683 288.922 396.666 291.666 393.658 294.42C393.094 294.932 392.598 295.522 392.1 296.113C391.881 296.373 391.662 296.634 391.437 296.888C391.579 297.115 391.73 297.351 391.872 297.588C392.13 297.588 392.389 297.596 392.648 297.605C393.196 297.624 393.743 297.642 394.282 297.578C396.321 297.324 398.36 297.071 400.4 296.818C409.977 295.631 419.555 294.444 429.115 293.134C431.383 292.822 432.489 293.351 433.443 295.469C437.872 305.245 442.427 314.97 446.982 324.692L447.751 326.334C448.113 327.107 448.574 327.833 449.153 328.744C449.466 329.236 449.814 329.782 450.198 330.419C450.412 329.772 450.598 329.248 450.758 328.8C451.038 328.017 451.234 327.467 451.342 326.901C451.705 324.994 452.069 323.086 452.432 321.179C454.209 311.864 455.985 302.551 457.664 293.219C458.118 290.704 459.167 289.408 461.813 289.124C468.509 288.411 475.193 287.583 481.875 286.755C483.34 286.574 484.805 286.392 486.27 286.212C489.217 285.853 492.16 285.46 495.101 285.068Z" fill="white"/>
<path d="M1004.54 -31.7588C1007.02 -26.4693 1005.68 -20.5773 1001.37 -17.6431C774.532 136.476 545.558 126.282 17.4245 -16.9279C13.013 -18.1241 9.20488 -21.6591 7.7236 -26.0464L-73.6458 -267.048C-76.4981 -275.496 -70.0132 -283.014 -61.4475 -281.41C305.196 -212.774 495.587 -254.348 783.45 -470.784C789.368 -475.234 798.755 -472.331 802.264 -464.818L1004.54 -31.7588Z" fill="url(#paint1_linear_2383_14080)"/>
<path d="M1767.15 568.156C1771.92 574.11 1770.48 582.472 1764.3 585.605C1262.08 840.26 805.971 77.9905 -214.321 180.976C-219.616 181.51 -223.668 185.594 -223.965 190.897L-242.623 523.708C-243.07 531.685 -235.239 538.618 -227.347 537.503C503.193 434.236 820.514 587.936 1476.14 221.321C1481.2 218.492 1488.2 220.009 1492.2 225.004L1767.15 568.156Z" fill="white" fill-opacity="0.5"/>
</g>
<defs>
<linearGradient id="paint0_linear_2383_14080" x1="-37" y1="275.806" x2="809.005" y2="278.662" gradientUnits="userSpaceOnUse">
<stop stop-color="#3CAFD6" stop-opacity="0.1"/>
<stop offset="1" stop-color="white"/>
</linearGradient>
<linearGradient id="paint1_linear_2383_14080" x1="559.863" y1="128.501" x2="441.928" y2="-401.047" gradientUnits="userSpaceOnUse">
<stop stop-color="white" stop-opacity="0"/>
<stop offset="1" stop-color="white"/>
</linearGradient>
<clipPath id="clip0_2383_14080">
<rect width="1400" height="687" fill="white"/>
</clipPath>
</defs>
</svg>
