<svg fill="none" height="24" viewBox="0 0 32 24" width="32" xmlns="http://www.w3.org/2000/svg"><path d="m13.7249 0-4.92303 16.9412-1.64103-6.353c2.13831 0 3.87876.5883 5.22146 1.7647 1.3426 1.1765 2.014 2.8 2.014 4.8706 0 2.0236-.6962 3.6706-2.0886 4.9412-1.3427 1.2235-3.03342 1.8353-5.07227 1.8353-2.08858 0-3.82906-.6118-5.22144-1.8353-1.342661-1.2706-2.01399-2.9176-2.01399-4.9412 0-.6117.0497281-1.2.149184-1.7647.099456-.6117.298369-1.3176.596737-2.1176.298369-.8.721059-1.8588 1.268069-3.1765l4.32634-10.1647zm17.6038 0-4.9231 16.9412-1.641-6.353c2.1383 0 3.8788.5883 5.2214 1.7647 1.3427 1.1765 2.014 2.8 2.014 4.8706 0 2.0236-.6962 3.6706-2.0886 4.9412-1.3426 1.2235-3.0334 1.8353-5.0722 1.8353-2.0886 0-3.8291-.6118-5.2215-1.8353-1.3426-1.2706-2.014-2.9176-2.014-4.9412 0-.6117.0498-1.2.1492-1.7647.0995-.6117.2984-1.3176.5968-2.1176.2983-.8.721-1.8588 1.268-3.1765l4.3264-10.1647z" fill="#3cafd6"/></svg>