<svg width="32" height="24" viewBox="0 0 32 24" fill="none" xmlns="http://www.w3.org/2000/svg">
<path d="M18.2751 24L23.1981 7.05882L24.8392 13.4118C22.7009 13.4118 20.9604 12.8235 19.6177 11.6471C18.2751 10.4706 17.6037 8.84706 17.6037 6.77647C17.6037 4.75294 18.2999 3.10588 19.6923 1.8353C21.035 0.611765 22.7257 9.06552e-07 24.7646 9.06552e-07C26.8531 9.06552e-07 28.5936 0.611765 29.986 1.8353C31.3287 3.10588 32 4.75294 32 6.77647C32 7.38823 31.9503 7.97647 31.8508 8.54117C31.7514 9.15294 31.5524 9.85882 31.2541 10.6588C30.9557 11.4588 30.533 12.5176 29.986 13.8353L25.6597 24L18.2751 24ZM0.671328 24L5.59441 7.05882L7.23543 13.4118C5.09713 13.4118 3.35664 12.8235 2.01399 11.6471C0.671328 10.4706 6.36641e-07 8.84706 6.36641e-07 6.77647C6.36641e-07 4.75294 0.696193 3.10588 2.08858 1.8353C3.43124 0.611765 5.12199 9.06552e-07 7.16084 9.06552e-07C9.24942 9.06552e-07 10.9899 0.611765 12.3823 1.8353C13.7249 3.10588 14.3963 4.75294 14.3963 6.77647C14.3963 7.38823 14.3465 7.97647 14.2471 8.54117C14.1476 9.15294 13.9487 9.85882 13.6503 10.6588C13.352 11.4588 12.9293 12.5176 12.3823 13.8353L8.05594 24L0.671328 24Z" fill="#3CAFD6"/>
</svg>
